<svg width="16" height="19" viewBox="0 0 16 19" fill="none" xmlns="http://www.w3.org/2000/svg">
<mask id="mask0_9_4643" style="mask-type:luminance" maskUnits="userSpaceOnUse" x="0" y="0" width="16" height="19">
<path d="M16 0.666992H0V18.445H16V0.666992Z" fill="white"/>
</mask>
<g mask="url(#mask0_9_4643)">
<path d="M1.77792 18.445C1.54403 18.4482 1.31196 18.4036 1.09596 18.3138C0.879962 18.2241 0.684612 18.091 0.521921 17.923C0.353858 17.7603 0.220852 17.5649 0.131083 17.3489C0.0413132 17.1329 -0.00332245 16.9009 -7.92709e-05 16.667V4.22299C-0.00332245 3.9891 0.0413132 3.75702 0.131083 3.54103C0.220852 3.32503 0.353858 3.12968 0.521921 2.96699C0.684612 2.79892 0.879962 2.66592 1.09596 2.57615C1.31196 2.48638 1.54403 2.44174 1.77792 2.44499H5.48892C5.65407 1.9235 5.99061 1.47314 6.44392 1.16699C6.90382 0.841852 7.4532 0.667267 8.01642 0.667267C8.57965 0.667267 9.12902 0.841852 9.58892 1.16699C10.0373 1.47579 10.3696 1.92563 10.5329 2.44499H14.2219C14.4558 2.44174 14.6879 2.48638 14.9039 2.57615C15.1199 2.66592 15.3152 2.79892 15.4779 2.96699C15.646 3.12968 15.779 3.32503 15.8688 3.54103C15.9585 3.75702 16.0032 3.9891 15.9999 4.22299V16.667C15.9991 17.1383 15.8115 17.5901 15.4783 17.9233C15.145 18.2566 14.6932 18.4442 14.2219 18.445H1.77792ZM1.77792 16.667H14.2219V4.22299H12.4439V6.88899H3.55592V4.22299H1.77792V16.667ZM7.99992 4.22299C8.11723 4.22502 8.23374 4.20341 8.34251 4.15945C8.45129 4.1155 8.5501 4.05009 8.63306 3.96713C8.71602 3.88417 8.78143 3.78536 8.82539 3.67658C8.86935 3.5678 8.89095 3.45129 8.88892 3.33399C8.88892 3.21724 8.86593 3.10164 8.82125 2.99378C8.77657 2.88592 8.71109 2.78792 8.62854 2.70537C8.54599 2.62282 8.44798 2.55733 8.34013 2.51266C8.23227 2.46798 8.11667 2.44499 7.99992 2.44499C7.88318 2.44499 7.76757 2.46798 7.65972 2.51266C7.55186 2.55733 7.45385 2.62282 7.3713 2.70537C7.28875 2.78792 7.22327 2.88592 7.17859 2.99378C7.13392 3.10164 7.11092 3.21724 7.11092 3.33399C7.10889 3.45129 7.1305 3.5678 7.17445 3.67658C7.21841 3.78536 7.28382 3.88417 7.36678 3.96713C7.44974 4.05009 7.54855 4.1155 7.65733 4.15945C7.7661 4.20341 7.88262 4.22502 7.99992 4.22299Z" fill="#666666"/>
<path d="M7.06689 14.489L3.91089 11.334L5.15489 10.09L7.06589 11.957L10.8439 8.17798L12.0879 9.46698L7.06689 14.489Z" fill="#666666"/>
</g>
</svg>
