<svg width="24" height="15" viewBox="0 0 24 15" fill="none" xmlns="http://www.w3.org/2000/svg">
<mask id="mask0_9_4636" style="mask-type:luminance" maskUnits="userSpaceOnUse" x="0" y="0" width="24" height="15">
<path d="M23.5 0H0.5V14.95H23.5V0Z" fill="white"/>
</mask>
<g mask="url(#mask0_9_4636)">
<path d="M0.5 12.65H12V14.95H0.5V12.65ZM0.5 6.9H6.25V9.2H0.5V6.9ZM0.5 1.15H6.25V3.45H0.5V1.15ZM21.89 14.95L17.463 10.522C17.0033 10.8478 16.4932 11.0958 15.953 11.256C15.4167 11.417 14.8599 11.4992 14.3 11.5C13.543 11.5123 12.7914 11.3695 12.0916 11.0804C11.3918 10.7913 10.7586 10.362 10.231 9.819C9.68798 9.29136 9.25871 8.65816 8.96961 7.95838C8.68052 7.2586 8.53771 6.50705 8.55 5.75C8.53777 4.99296 8.6806 4.24143 8.9697 3.54165C9.25879 2.84188 9.68803 2.20867 10.231 1.681C10.7586 1.13798 11.3918 0.708707 12.0916 0.41961C12.7914 0.130514 13.543 -0.0122875 14.3 -1.95747e-06C15.057 -0.0122875 15.8086 0.130514 16.5084 0.41961C17.2082 0.708707 17.8414 1.13798 18.369 1.681C18.912 2.20867 19.3412 2.84188 19.6303 3.54165C19.9194 4.24143 20.0622 4.99296 20.05 5.75C20.0487 6.30889 19.9665 6.86465 19.806 7.4C19.6455 7.93977 19.3976 8.44955 19.072 8.909L23.5 13.34L21.89 14.95ZM14.3 9.2C14.7545 9.20805 15.2058 9.12295 15.6261 8.94993C16.0464 8.77691 16.4269 8.51965 16.744 8.194C17.0697 7.87688 17.3269 7.49644 17.4999 7.07611C17.6729 6.65578 17.7581 6.20447 17.75 5.75C17.7581 5.29552 17.6729 4.84422 17.4999 4.42389C17.3269 4.00356 17.0697 3.62311 16.744 3.306C16.094 2.66168 15.2158 2.30019 14.3005 2.30019C13.3852 2.30019 12.507 2.66168 11.857 3.306C11.5312 3.62303 11.2737 4.00343 11.1005 4.42377C10.9273 4.8441 10.8421 5.29545 10.85 5.75C10.8419 6.20447 10.9271 6.65578 11.1001 7.07611C11.2731 7.49644 11.5303 7.87688 11.856 8.194C12.1731 8.51965 12.5536 8.77691 12.9739 8.94993C13.3942 9.12295 13.8455 9.20805 14.3 9.2Z" fill="#666666"/>
</g>
</svg>
