<svg xmlns="http://www.w3.org/2000/svg" width="21" height="18" viewBox="0 0 21 18" fill="none">
    <path
        d="M0 9H7.875V11.25H0V9ZM0 4.5H12.375V6.75H0V4.5ZM0 0H12.375V2.25H0V0ZM10.125 18V14.541L16.341 8.353C16.4995 8.1911 16.6917 8.06613 16.904 7.987C17.1021 7.91344 17.3117 7.87552 17.523 7.875C17.7444 7.87394 17.9639 7.91641 18.169 8C18.3802 8.08777 18.5716 8.21698 18.732 8.38L19.773 9.421C19.9213 9.58741 20.0403 9.77778 20.125 9.984C20.2072 10.1801 20.25 10.3904 20.251 10.603C20.2494 10.8185 20.2112 11.0322 20.138 11.235C20.0616 11.4527 19.9364 11.6501 19.772 11.812L13.584 18H10.125ZM11.813 16.309H12.882L16.282 12.878L15.776 12.344L15.242 11.838L11.811 15.238L11.813 16.309ZM15.779 12.343L15.245 11.837L16.286 12.878L15.779 12.343Z"
        fill="#FF552C" />
</svg>