<svg width="14" height="17" viewBox="0 0 14 17" fill="none" xmlns="http://www.w3.org/2000/svg">
<mask id="mask0_9_4619" style="mask-type:luminance" maskUnits="userSpaceOnUse" x="0" y="0" width="14" height="17">
<path d="M13.6 0H0V17H13.6V0Z" fill="white"/>
</mask>
<g mask="url(#mask0_9_4619)">
<path d="M0 14.45V12.75H1.7V6.79999C1.68657 5.66437 2.06163 4.55825 2.763 3.66499C3.44838 2.7638 4.4247 2.12776 5.526 1.86499V1.26499C5.52451 1.09856 5.5569 0.933565 5.6212 0.780046C5.6855 0.626527 5.78035 0.487693 5.9 0.371993C6.13975 0.135289 6.46309 0.00256348 6.8 0.00256348C7.13691 0.00256348 7.46025 0.135289 7.7 0.371993C7.82015 0.488677 7.91514 0.628724 7.97911 0.783506C8.04309 0.938289 8.0747 1.10453 8.072 1.27199V1.87199C9.17293 2.13497 10.1489 2.77099 10.834 3.67199C11.5349 4.56297 11.911 5.6664 11.9 6.79999V12.75H13.6V14.45H0ZM6.8 17C6.34913 17 5.91673 16.8209 5.59792 16.5021C5.27911 16.1833 5.1 15.7509 5.1 15.3H8.5C8.5 15.7509 8.32089 16.1833 8.00208 16.5021C7.68327 16.8209 7.25087 17 6.8 17Z" fill="#666666"/>
</g>
</svg>
