<svg id="Group_26" data-name="Group 26" xmlns="http://www.w3.org/2000/svg" xmlns:xlink="http://www.w3.org/1999/xlink" width="13" height="13" viewBox="0 0 13 13">
  <defs>
    <clipPath id="clip-path">
      <rect id="Rectangle_30" data-name="Rectangle 30" width="13" height="13" fill="#a3a3a3"/>
    </clipPath>
  </defs>
  <g id="Group_24" data-name="Group 24" clip-path="url(#clip-path)">
    <path id="Path_28" data-name="Path 28" d="M5.59,9.49l4.582-4.583L9.263,4,5.59,7.67,3.738,5.818l-.91.91ZM6.5,13a6.32,6.32,0,0,1-2.535-.512A6.486,6.486,0,0,1,.512,9.035,6.32,6.32,0,0,1,0,6.5,6.32,6.32,0,0,1,.512,3.965,6.486,6.486,0,0,1,3.965.512,6.32,6.32,0,0,1,6.5,0,6.32,6.32,0,0,1,9.035.512a6.486,6.486,0,0,1,3.453,3.453A6.32,6.32,0,0,1,13,6.5a6.32,6.32,0,0,1-.512,2.535,6.486,6.486,0,0,1-3.453,3.453A6.32,6.32,0,0,1,6.5,13" transform="translate(0 0)" fill="#a3a3a3"/>
  </g>
</svg>
