<svg id="Group_25" data-name="Group 25" xmlns="http://www.w3.org/2000/svg" xmlns:xlink="http://www.w3.org/1999/xlink" width="16" height="16" viewBox="0 0 16 16">
  <defs>
    <clipPath id="clip-path">
      <rect id="Rectangle_30" data-name="Rectangle 30" width="16" height="16" fill="#004a9d"/>
    </clipPath>
  </defs>
  <g id="Group_24" data-name="Group 24" clip-path="url(#clip-path)">
    <path id="Path_28" data-name="Path 28" d="M6.88,11.68l5.64-5.64L11.4,4.92,6.88,9.44,4.6,7.16,3.48,8.28ZM8,16a7.779,7.779,0,0,1-3.12-.63A7.983,7.983,0,0,1,.63,11.12,7.779,7.779,0,0,1,0,8,7.779,7.779,0,0,1,.63,4.88,7.982,7.982,0,0,1,4.88.63,7.779,7.779,0,0,1,8,0a7.779,7.779,0,0,1,3.12.63,7.983,7.983,0,0,1,4.25,4.25A7.779,7.779,0,0,1,16,8a7.779,7.779,0,0,1-.63,3.12,7.983,7.983,0,0,1-4.25,4.25A7.779,7.779,0,0,1,8,16" transform="translate(0 0)" fill="#004a9d"/>
  </g>
</svg>
