<svg xmlns="http://www.w3.org/2000/svg" width="17" height="17" viewBox="0 0 17 17" fill="none">
    <mask id="mask0_16_82" style="mask-type:luminance" maskUnits="userSpaceOnUse" x="0" y="0"
        width="17" height="17">
        <path d="M17 0H0V17H17V0Z" fill="white" />
    </mask>
    <g mask="url(#mask0_16_82)">
        <path
            d="M8.5 17.0002C6.40106 17.0283 4.37029 16.2555 2.821 14.8392C1.24001 13.4621 0.247206 11.5313 0.047 9.44421H1.983C2.17298 11.025 2.95347 12.4756 4.168 13.5052C5.36222 14.5603 6.90659 15.1329 8.5 15.1112C9.37117 15.1276 10.2365 14.9653 11.0424 14.6342C11.8484 14.3031 12.5779 13.8103 13.186 13.1862C13.8101 12.5781 14.3029 11.8486 14.634 11.0426C14.965 10.2367 15.1274 9.37138 15.111 8.50021C15.1274 7.62904 14.965 6.76375 14.634 5.95778C14.3029 5.15181 13.8101 4.42227 13.186 3.81421C12.5779 3.19014 11.8484 2.69734 11.0424 2.36625C10.2365 2.03516 9.37117 1.8728 8.5 1.88921C7.43755 1.88357 6.39052 2.14343 5.454 2.64521C4.51129 3.147 3.69556 3.85738 3.069 4.72221H5.669V6.61121H0V0.944206H1.889V3.16421C2.67575 2.16874 3.68193 1.36858 4.829 0.826206C5.97484 0.277904 7.22974 -0.00445713 8.5 0.000206123C9.64027 -0.00786138 10.7698 0.22097 11.817 0.672206C13.8473 1.53617 15.464 3.15292 16.328 5.18321C16.7792 6.23042 17.0081 7.35994 17 8.50021C17.008 9.64079 16.7792 10.7706 16.328 11.8182C15.4636 13.8479 13.8469 15.4642 11.817 16.3282C10.7698 16.7794 9.64027 17.0083 8.5 17.0002ZM11.144 12.4672L7.556 8.87821V3.77821H9.444V8.12221L12.466 11.1442L11.144 12.4672Z"
            fill="white" />
    </g>
</svg>