<svg id="Group_23" data-name="Group 23" xmlns="http://www.w3.org/2000/svg" xmlns:xlink="http://www.w3.org/1999/xlink" width="20" height="11.111" viewBox="0 0 20 11.111">
  <defs>
    <clipPath id="clip-path">
      <rect id="Rectangle_29" data-name="Rectangle 29" width="20" height="11.111" fill="#004a9d"/>
    </clipPath>
  </defs>
  <g id="Group_22" data-name="Group 22" clip-path="url(#clip-path)">
    <path id="Path_27" data-name="Path 27" d="M4.444,0H20V2.222H4.444Zm0,4.444H20V6.667H4.444Zm0,4.444H20v2.222H4.444ZM1.111,2.222A1.072,1.072,0,0,1,.32,1.9,1.072,1.072,0,0,1,0,1.111,1.072,1.072,0,0,1,.32.32,1.072,1.072,0,0,1,1.111,0,1.072,1.072,0,0,1,1.9.32a1.072,1.072,0,0,1,.32.791A1.072,1.072,0,0,1,1.9,1.9a1.072,1.072,0,0,1-.791.32m0,4.444a1.072,1.072,0,0,1-.791-.32,1.138,1.138,0,0,1,0-1.582,1.072,1.072,0,0,1,.791-.32,1.072,1.072,0,0,1,.791.32,1.138,1.138,0,0,1,0,1.582,1.072,1.072,0,0,1-.791.32m0,4.444a1.072,1.072,0,0,1-.791-.32,1.138,1.138,0,0,1,0-1.582,1.072,1.072,0,0,1,.791-.32,1.072,1.072,0,0,1,.791.32,1.138,1.138,0,0,1,0,1.582,1.072,1.072,0,0,1-.791.32" fill="#004a9d"/>
  </g>
</svg>
