<svg width="17" height="14" viewBox="0 0 17 14" fill="none" xmlns="http://www.w3.org/2000/svg">
<mask id="mask0_9_4621" style="mask-type:luminance" maskUnits="userSpaceOnUse" x="0" y="0" width="17" height="14">
<path d="M17 0H0V13.6H17V0Z" fill="white"/>
</mask>
<g mask="url(#mask0_9_4621)">
<path d="M1.70013 13.6001C1.47659 13.603 1.25483 13.5601 1.04848 13.4741C0.842115 13.3881 0.655514 13.2609 0.500133 13.1001C0.339403 12.9448 0.212137 12.7582 0.126154 12.5518C0.0401707 12.3454 -0.0027144 12.1237 0.000133048 11.9001V1.70013C-0.0027144 1.47659 0.0401707 1.25483 0.126154 1.04848C0.212137 0.842115 0.339403 0.655514 0.500133 0.500133C0.655514 0.339403 0.842115 0.212137 1.04848 0.126154C1.25483 0.0401707 1.47659 -0.0027144 1.70013 0.000133048H15.3001C15.5237 -0.0027144 15.7454 0.0401707 15.9518 0.126154C16.1582 0.212137 16.3448 0.339403 16.5001 0.500133C16.6609 0.655514 16.7881 0.842115 16.8741 1.04848C16.9601 1.25483 17.003 1.47659 17.0001 1.70013V11.9001C17.0001 12.351 16.821 12.7834 16.5022 13.1022C16.1834 13.421 15.751 13.6001 15.3001 13.6001H1.70013ZM8.50013 7.65013L15.3001 3.40013V1.70013L8.50013 5.95013L1.70013 1.70013V3.40013L8.50013 7.65013Z" fill="#666666"/>
</g>
</svg>
