<svg xmlns="http://www.w3.org/2000/svg" width="18" height="18" viewBox="0 0 18 18" fill="none">
    <mask id="mask0_16_76" style="mask-type:luminance" maskUnits="userSpaceOnUse" x="0" y="0"
        width="18" height="18">
        <path d="M18 0H0V18H18V0Z" fill="white" />
    </mask>
    <g mask="url(#mask0_16_76)">
        <path
            d="M2.00019 18.0002C1.73709 18.0038 1.47602 17.9536 1.23303 17.8527C0.990039 17.7517 0.770256 17.6022 0.587185 17.4132C0.39819 17.2301 0.248624 17.0103 0.147679 16.7673C0.0467337 16.5243 -0.00345892 16.2633 0.000185109 16.0002V2.00019C-0.00345892 1.73709 0.0467337 1.47602 0.147679 1.23303C0.248624 0.990039 0.39819 0.770256 0.587185 0.587185C0.770256 0.39819 0.990039 0.248624 1.23303 0.147679C1.47602 0.0467337 1.73709 -0.00345892 2.00019 0.000185109H13.0002L18.0002 5.00019V16.0002C18.0002 16.5306 17.7895 17.0393 17.4144 17.4144C17.0393 17.7895 16.5306 18.0002 16.0002 18.0002H2.00019ZM2.00019 16.0002H16.0002V6.00019H12.0002V2.00019H2.00019V16.0002ZM4.00019 14.0002H14.0002V12.0002H4.00019V14.0002ZM4.00019 6.00019H9.00019V4.00019H4.00019V6.00019ZM4.00019 10.0002H14.0002V8.00019H4.00019V10.0002Z"
            fill="white" />
    </g>
</svg>