<svg width="15" height="18" viewBox="0 0 15 18" fill="none" xmlns="http://www.w3.org/2000/svg">
<mask id="mask0_9_4630" style="mask-type:luminance" maskUnits="userSpaceOnUse" x="0" y="0" width="15" height="18">
<path d="M14.4 0H0V18H14.4V0Z" fill="white"/>
</mask>
<g mask="url(#mask0_9_4630)">
<path d="M7.20017 10.8002C7.55595 10.7999 7.90366 10.6941 8.19937 10.4963C8.49509 10.2985 8.72556 10.0175 8.86166 9.68879C8.99777 9.36008 9.03341 8.9984 8.96409 8.64945C8.89477 8.30049 8.72359 7.9799 8.47217 7.72818C8.30541 7.56082 8.10725 7.42803 7.88906 7.33743C7.67087 7.24682 7.43693 7.20018 7.20068 7.20018C6.96442 7.20018 6.73048 7.24682 6.51229 7.33743C6.2941 7.42803 6.09594 7.56082 5.92917 7.72818C5.67782 7.97984 5.50666 8.30034 5.43731 8.6492C5.36795 8.99807 5.40351 9.35966 5.53949 9.68833C5.67548 10.017 5.90579 10.298 6.20135 10.4959C6.49692 10.6938 6.84448 10.7997 7.20017 10.8002ZM3.60017 14.4002H10.8002V13.8832C10.803 13.5315 10.7014 13.187 10.5082 12.8932C10.3116 12.5924 10.0295 12.3573 9.69817 12.2182C9.3108 12.0541 8.90909 11.9263 8.49817 11.8362C7.64523 11.6563 6.76412 11.6563 5.91117 11.8362C5.50024 11.9262 5.09852 12.0541 4.71117 12.2182C4.37985 12.3573 4.09775 12.5924 3.90117 12.8932C3.70798 13.187 3.60635 13.5315 3.60917 13.8832L3.60017 14.4002ZM12.6002 18.0002H1.80017C1.56336 18.0035 1.32835 17.9584 1.10961 17.8676C0.890864 17.7768 0.692999 17.6423 0.528175 17.4722C0.358096 17.3074 0.223521 17.1095 0.132721 16.8907C0.0419215 16.672 -0.00318472 16.437 0.000174768 16.2002V1.80017C-0.00318472 1.56336 0.0419215 1.32835 0.132721 1.10961C0.223521 0.890864 0.358096 0.692999 0.528175 0.528175C0.692999 0.358096 0.890864 0.223521 1.10961 0.132721C1.32835 0.0419215 1.56336 -0.00318472 1.80017 0.000174768H9.00017L14.4002 5.40018V16.2002C14.4002 16.6776 14.2105 17.1354 13.873 17.473C13.5354 17.8105 13.0776 18.0002 12.6002 18.0002Z" fill="#666666"/>
</g>
</svg>
