<svg xmlns="http://www.w3.org/2000/svg" xmlns:xlink="http://www.w3.org/1999/xlink" width="245.218" height="57.094" viewBox="0 0 245.218 57.094">
  <defs>
    <clipPath id="clip-path">
      <rect id="Rectangle_116" data-name="Rectangle 116" width="146.622" height="27.713" fill="#fff"/>
    </clipPath>
  </defs>
  <g id="Group_68" data-name="Group 68" transform="translate(-15.63 -5338.638)">
    <g id="Group_49" data-name="Group 49" transform="translate(110.086 5368.019)">
      <path id="Path_69" data-name="Path 69" d="M666.485,3.911l.214,7.839h3.042l-.214-7.839Z" transform="translate(-523.137 -3.07)" fill="#fff"/>
      <path id="Path_70" data-name="Path 70" d="M555.919,20.7h2.8l-.36,2.222h-2.8Zm.761-4.7h2.8l-.259,1.6h-2.8Zm-8.566-.186h1.213l-.668,4.128-1.327.7Zm.957-5.919h1.213l-.466,2.876h-1.213Zm9.588-3.769h1.978l-1.413,3.656h-.311Zm5.149,0h1.322l.05-.312.116,3.968h-2.9Zm-13.779-2.15h1.214l-.466,2.876h-1.214Zm4.361,0h.31l-.348,2.15h1.261l.229,3.656H553.45ZM559.174,0l-.514,3.177h-3.145L555.883.9h-9.438l-.5,3.073h1.059l-2.976,18.4-1.16.623-.6,3.693,5.789-3.052-.66,4.075h3.147l2.424-14.983h12.4l.154,5.662-4.289,6.237,1.887-11.671h-9l-2.1,13.01h8.3l-.986,1.433h3.427l2.889-4.232.138,4.544h3.072l-.248-8.859,3.345-4.867h-3.43l-.036.055-.04-1.312h3.343l.477-2.948h-3.894l-.28-9.626h-3.073l.088,3.021h-3.328L562.29,0Z" transform="translate(-425.64)" fill="#fff"/>
      <path id="Path_71" data-name="Path 71" d="M490.629,10.988h-11.37l-.526,3.26H490.1Z" transform="translate(-375.766 -8.625)" fill="#fff"/>
      <path id="Path_72" data-name="Path 72" d="M404.835,14.753h1.027l-.285,1.755h-1.027Zm4.2,0h1.027l-.285,1.755h-1.027Zm-3.494-4.392h1.027l-.2,1.257h-1.027Zm4.2,0h1.027l-.2,1.257h-1.027ZM408.158.56l-.4,2.492h-4.7l-.512,3.166h4.7l-.163,1.008h-4.143l-2,12.387h4.143l-.169,1.039h-4.766l-.511,3.166H404.4l-.7,4.3h3.178l.7-4.3h4.159l-.359,3.286,12.7-1.431.343,2.444h3.46l-2.247-10.923h-3.453l1.274,5.327-5.7.649,4.669-8.292h5.948l.527-3.26h-14.7l-.527,3.26h5.233l-4.787,8.469-1.533.186.465-2.881h-4.952l.169-1.039h4.174l2-12.387h-4.174l.163-1.008h4.921l.512-3.166h-4.921l.4-2.492Z" transform="translate(-313.677 -0.44)" fill="#fff"/>
      <path id="Path_73" data-name="Path 73" d="M274.044,17.152h11.8l.668-4.128H265.051l-.668,4.128h5.036L268.7,21.5H262.12l-.886,4.365h6.754l-1.8,10.974H283.3l.668-4.127h-12.48l1.125-6.847h13.317l.845-4.365H273.33Z" transform="translate(-205.047 -10.223)" fill="#fff"/>
      <g id="Group_48" data-name="Group 48">
        <g id="Group_47" data-name="Group 47" clip-path="url(#clip-path)">
          <path id="Path_74" data-name="Path 74" d="M.61,19.663,0,24.406a48.856,48.856,0,0,0,12.641-3.863l-1.8,11.122H15.7l2.321-14.347A30.966,30.966,0,0,0,27.274,6.069H22.091C17.733,13.373,11.044,17.57.61,19.663" transform="translate(0 -4.764)" fill="#fff"/>
          <path id="Path_75" data-name="Path 75" d="M134.5,54.533l-.586,4.554c5.346,0,21.029-.138,26.353-18.481H155.5c-4.028,11.944-13.169,13.827-21,13.927" transform="translate(-105.109 -31.872)" fill="#fff"/>
          <path id="Path_76" data-name="Path 76" d="M156.028,12.134H145.069l-.673,4.16h10.958Z" transform="translate(-113.34 -9.524)" fill="#fff"/>
          <path id="Path_77" data-name="Path 77" d="M151.2,43.5H140.238l-.673,4.16h10.958Z" transform="translate(-109.548 -34.143)" fill="#fff"/>
        </g>
      </g>
    </g>
    <path id="Path_78" data-name="Path 78" d="M8.148-2.656l-1.225.7A10.783,10.783,0,0,1,8.96.076L10.384-.9A15.953,15.953,0,0,0,8.413-2.656h.6a2.653,2.653,0,0,1-.083-.795h4.09a15.434,15.434,0,0,1,1.772.066,8.007,8.007,0,0,1-.066-1.259V-5.968a8.176,8.176,0,0,1,.066-1.242,15.287,15.287,0,0,1-1.755.066H8.926v-.7h3.61c.845,0,1.259.017,1.689.05a7.308,7.308,0,0,1-.066-1.093v-.132l.017-1.441a10.962,10.962,0,0,1,.066-1.209,12.569,12.569,0,0,1-1.805.083H8.926a6.326,6.326,0,0,1,.1-1.093H7.088a7.038,7.038,0,0,1,.1,1.093H4.008a12.593,12.593,0,0,1-1.788-.083,7.838,7.838,0,0,1,.066,1.11v.1L2.269-9.015A9.674,9.674,0,0,1,2.2-7.79c.53-.033.878-.05,1.689-.05h3.3v.7H3.4A14.741,14.741,0,0,1,1.64-7.21a8.459,8.459,0,0,1,.066,1.242v1.325A8.563,8.563,0,0,1,1.64-3.385a16.819,16.819,0,0,1,1.706-.066H7.188a3.861,3.861,0,0,1-.1.795Zm-.96-7.551v.977H4.025v-.977Zm1.739,0H12.4v.977H8.926ZM7.188-5.8v.944H3.478V-5.8Zm1.739,0h3.991v.944H8.926ZM2.154,2.328A12.786,12.786,0,0,0,3.975-1.745L2.452-2.391A9.356,9.356,0,0,1,.63,1.285ZM4.6-2.309a6.711,6.711,0,0,1,.083,1.275v2.12c0,1.076.546,1.292,3.345,1.292,4.041,0,4.256-.132,4.5-2.815A5.611,5.611,0,0,1,10.8-.951,3.544,3.544,0,0,1,10.582.507C10.4.755,9.9.821,8.3.821c-1.639,0-1.9-.05-1.9-.4V-1.232a4.8,4.8,0,0,1,.083-1.076ZM15.849,1.169a23,23,0,0,0-2.385-3.56l-1.441.778a17.784,17.784,0,0,1,2.285,3.776Zm7.965-7.435a27.52,27.52,0,0,1-6.823,3.047,6.053,6.053,0,0,1,.977,1.656c1.275-.513,1.623-.662,2.633-1.159-.017.3-.017.662-.017.927V.772a15.377,15.377,0,0,1-.1,1.871h1.938V1.931h6.011v.712h1.921a12.946,12.946,0,0,1-.1-1.871v-4.09a15.918,15.918,0,0,1,.066-1.805c-.48.033-.944.05-1.739.05H26.149c-.431,0-.977,0-1.341.017.745-.48,1.159-.762,1.788-1.209h3.56a17.3,17.3,0,0,1,2.053.1V-7.989a14.033,14.033,0,0,1-1.888.1H28.616a24.207,24.207,0,0,0,2.252-2.285q.571-.671.745-.845L29.974-12.1a11.793,11.793,0,0,1-1.921,2.517V-11a13.161,13.161,0,0,1-1.855.1H25.006v-.282a7.056,7.056,0,0,1,.1-1.457h-2.02a8.861,8.861,0,0,1,.1,1.457v.282H20.767a13.964,13.964,0,0,1-1.954-.1v1.739A18.257,18.257,0,0,1,20.7-9.33h2.484v1.441H19.409a14.575,14.575,0,0,1-2.02-.1v1.822a16.669,16.669,0,0,1,1.987-.1Zm1.192-1.623V-9.33h1.358c.662,0,.944.017,1.391.05a16.2,16.2,0,0,1-1.59,1.391ZM22.423-3.567h5.995v1.225H22.423Zm0,2.666h5.995V.374H22.423Zm15,2.616c-.017-.215-.017-.348-.017-.447a13.6,13.6,0,0,1,1.474-5.018l-1.325-.6A16.889,16.889,0,0,0,36.7-2.159c.017-.414.033-.546.033-.911a27.649,27.649,0,0,1,.248-3.66,22.831,22.831,0,0,1,1.043-4.951l-2.186-.232a10.836,10.836,0,0,1-.248,1.54A31.792,31.792,0,0,0,34.909-3.9a28.885,28.885,0,0,0,.431,4.951c.05.381.066.48.083.778ZM39.711-8.2a19.658,19.658,0,0,0,2.981.182,29.662,29.662,0,0,0,3.544-.2c.795-.1,1.043-.132,1.176-.149l-.1-2a18.261,18.261,0,0,1-4.5.447,11.94,11.94,0,0,1-3.064-.265Zm1.143,2.732A5.41,5.41,0,0,0,39.33-2.06a2.774,2.774,0,0,0,.5,1.623C40.556.54,41.881,1,43.934,1A20.421,20.421,0,0,0,47.362.689a5.534,5.534,0,0,1,.679-.1l-.166-2.1a11.638,11.638,0,0,1-3.941.629c-1.722,0-2.633-.5-2.633-1.441A3.746,3.746,0,0,1,42.477-4.71Zm20.319-2c.745,0,1.242.017,1.788.066V-8.932a10.375,10.375,0,0,1-1.623.083H58.325c.116-.48.182-.729.2-.778l-1.805-.2a6.012,6.012,0,0,1-.166.977H54.367a10.482,10.482,0,0,1-1.557-.083v1.524A15.087,15.087,0,0,1,54.5-7.475h1.275c-.845.729-2.12,1.11-4.19,1.292a3.272,3.272,0,0,1,.629,1.06,12.222,12.222,0,0,1-1.805-.1v1.706a13.527,13.527,0,0,1,1.805-.1H61.5V.606c0,.282-.182.381-.712.381-.2,0-.613-.017-.977-.033-.017-.182-.033-.7-.033-.96V-1.58a9.476,9.476,0,0,1,.066-1.308,12.891,12.891,0,0,1-1.374.05H53.8c-.563,0-.944-.017-1.341-.05a9.111,9.111,0,0,1,.066,1.275V.639a9.293,9.293,0,0,1-.083,1.424h1.822V1.186h4.372a6.67,6.67,0,0,1,.315,1.341c.7.05,1.424.083,1.871.083,1.938,0,2.467-.381,2.467-1.772V-3.617h.4a14.916,14.916,0,0,1,1.788.1V-5.223a13.964,13.964,0,0,1-1.788.1h-.2a4.559,4.559,0,0,1,.58-1.126c-2.418-.166-3.66-.5-4.6-1.225ZM54.267-5.124A5.5,5.5,0,0,0,57.646-7.26a5.969,5.969,0,0,0,3.527,2.136Zm-.017,3.643h3.842V-.172H54.251Zm2.616-9.969H52.512a14.659,14.659,0,0,1-1.822-.083,8.649,8.649,0,0,1,.066,1.225v1.06a7.094,7.094,0,0,1-.083,1.242h1.788V-9.926H63.309v1.921H65.1a9.055,9.055,0,0,1-.066-1.242v-1.06a8.356,8.356,0,0,1,.066-1.225,14.822,14.822,0,0,1-1.822.083H58.689v-.132a4.908,4.908,0,0,1,.083-1.06H56.785a5.168,5.168,0,0,1,.083,1.076Zm13.082-.878a3.892,3.892,0,0,1-.05.563l-.248,2.053c-.132,1.143-.232,2.981-.232,4.322,0,.331.033,1.557.05,2.037v.315a1.288,1.288,0,0,1-.017.215l1.987-.033V-3.2a7.94,7.94,0,0,1,2.087-5.349,2.465,2.465,0,0,1,1.788-.878c1.424,0,2.219,1.325,2.219,3.709,0,2.517-.878,4.09-2.8,5.067a9.667,9.667,0,0,1-3.627.944,6.334,6.334,0,0,1,.977,1.954,14.123,14.123,0,0,0,3.246-.927A6.96,6.96,0,0,0,79.6-5.488a6.935,6.935,0,0,0-1.192-4.4,3.468,3.468,0,0,0-2.832-1.49,3.953,3.953,0,0,0-3.146,1.689A6.7,6.7,0,0,0,71.39-7.724a3.636,3.636,0,0,1-.1.364h-.05c.033-.4.1-.96.215-1.656a16.244,16.244,0,0,1,.6-3.2ZM92.7-8.75a10.646,10.646,0,0,0,.464-1.507,33.592,33.592,0,0,0,4.339-.828l-1.176-1.557a6.882,6.882,0,0,1-1.623.53,35.341,35.341,0,0,1-6.26.613h-.7a6.03,6.03,0,0,1,.662,1.59c.96-.017.96-.017,2.964-.166a10.279,10.279,0,0,1-.431,1.325H88.894a13.63,13.63,0,0,1-1.788-.083v1.739c.563-.05,1.093-.083,1.673-.083H90.1a8.6,8.6,0,0,1-3.726,2.964,4.785,4.785,0,0,1,1.159,1.441,11.079,11.079,0,0,0,3.08-2.517A10.014,10.014,0,0,1,90.7-3.915V.54c0,.282-.116.381-.447.381A6.028,6.028,0,0,1,88.96.772a5.539,5.539,0,0,1,.331,1.706c.364.033.828.05,1.374.05A2.1,2.1,0,0,0,91.974,2.2c.282-.248.348-.48.348-1.242V-3.931a9.64,9.64,0,0,1,.1-1.49H90.732a11.264,11.264,0,0,0,1.225-1.755h1.076A10.36,10.36,0,0,0,98-2.706a5.6,5.6,0,0,1,.861-1.722A7.686,7.686,0,0,1,96.346-5.7a5.89,5.89,0,0,1-1.474-1.474h1.788a18.385,18.385,0,0,1,1.838.083V-8.833a17.894,17.894,0,0,1-1.871.083Zm-8.86-2.434a12.665,12.665,0,0,1,2.881,2.236L87.8-10.373a16.589,16.589,0,0,0-2.848-2.1Zm-.662,4.173a14.971,14.971,0,0,1,3.047,2.12L87.222-6.4a16.419,16.419,0,0,0-3.03-1.954Zm2.285,3.229A14.1,14.1,0,0,1,83.3,1.285l1.54,1.341a23.857,23.857,0,0,0,2.07-5.382Zm2.683,5.713a15.04,15.04,0,0,0,1.788-4.8l-1.474-.464a8.971,8.971,0,0,1-.629,2.2A8.869,8.869,0,0,1,86.692.987Zm4.537-4.852a24.317,24.317,0,0,1,1.176,4.736l1.656-.646a29.356,29.356,0,0,0-1.441-4.554Zm2.351.149a20.483,20.483,0,0,1,2.12,4.554L98.731.9A26.921,26.921,0,0,0,96.4-3.418Zm8.412-7.485a36.7,36.7,0,0,0,7.733,1.043l.282-2.037H111a22.7,22.7,0,0,1-6.905-.96Zm-1.457,5.531a23.155,23.155,0,0,1,6.558-1.143c1.722,0,2.6.629,2.6,1.871a3.423,3.423,0,0,1-2.02,2.915A11.559,11.559,0,0,1,104.146.175a4.73,4.73,0,0,1,.861,2.07A13.554,13.554,0,0,0,110.223.689a5.573,5.573,0,0,0,3.146-4.753,3.409,3.409,0,0,0-1.606-3.03,5.975,5.975,0,0,0-3.13-.679,28.892,28.892,0,0,0-5.2.563,11.272,11.272,0,0,1-1.921.282ZM126.2-8.4a6.211,6.211,0,0,1-.331,1.259,4.689,4.689,0,0,0-.629-.033,9.163,9.163,0,0,0-2.285.215c.017-.348.033-.878.083-1.59a53.127,53.127,0,0,0,5.829-.58c.348-.05.414-.05.646-.066l-.083-1.9a30.008,30.008,0,0,1-6.276.878,9.749,9.749,0,0,1,.3-2.037l-2.053-.1a.932.932,0,0,1,.033.265c0,.315-.017.729-.033.944-.05.662-.05.662-.066.994h-.364a14.651,14.651,0,0,1-3.1-.248v1.855c.182-.017.331-.017.381-.017h.315c1.606.05,2.5.066,2.683.066-.033.795-.066,1.457-.066,1.987a6.844,6.844,0,0,0-2.269,1.49,5.2,5.2,0,0,0-1.639,3.709,2.615,2.615,0,0,0,2.583,2.9c1.374,0,2.848-.811,4.339-2.385a14.615,14.615,0,0,0,2.881-4.4,2.429,2.429,0,0,1,1.855,2.285A2.781,2.781,0,0,1,127-.338a6.866,6.866,0,0,1-3.163.662,5.334,5.334,0,0,1,.878,1.871,9.224,9.224,0,0,0,3.378-.878,4.5,4.5,0,0,0,2.848-4.14,3.694,3.694,0,0,0-1.573-3.13,4.459,4.459,0,0,0-1.722-.811c.05-.149.066-.166.232-.629a3.824,3.824,0,0,1,.2-.48Zm-4.985,3.776a18.164,18.164,0,0,0,.3,3.743,2.281,2.281,0,0,1-1.441.629c-.58,0-.944-.464-.944-1.209a3.283,3.283,0,0,1,.745-2.02A4.925,4.925,0,0,1,121.219-4.627Zm1.871,2.5a.679.679,0,0,1-.017-.182.875.875,0,0,0-.017-.215,27.537,27.537,0,0,1-.116-2.848,6.084,6.084,0,0,1,1.987-.3,3.889,3.889,0,0,1,.431.017,12.6,12.6,0,0,1-2.053,3.312,1.529,1.529,0,0,0-.182.232ZM137.464-12.41a16.916,16.916,0,0,1-.5,2.881c-.364.017-.646.017-.845.017a11.5,11.5,0,0,1-2.236-.149v1.888l.878.017c.348.017.447.017.662.017.2,0,.3,0,1.043-.017a25.477,25.477,0,0,1-1.557,3.908,15.074,15.074,0,0,1-1.606,2.65l1.9,1.06c.1-.2.1-.2.315-.6.629-1.159.778-1.457,1.159-2.269a31.787,31.787,0,0,0,1.822-4.8c1.027-.083,2.037-.2,2.633-.3a3.229,3.229,0,0,1,.53-.083l-.05-1.9a14.2,14.2,0,0,1-2.65.464c.182-.729.265-1.06.348-1.457a8.289,8.289,0,0,1,.265-1.11Zm10.6,4.306a26.142,26.142,0,0,0-4.67-2.219L142.4-8.717A20.268,20.268,0,0,1,147.168-6.4ZM148-.636a2.962,2.962,0,0,1-.248-.232,6.105,6.105,0,0,0-.58-.447,10.346,10.346,0,0,0-2.616-1.524,17.585,17.585,0,0,1-.149-2.269,5.52,5.52,0,0,1,.2-1.673l-1.921-.1a8.783,8.783,0,0,0-.132,1.673c0,.5.033,1.143.083,1.9a8.225,8.225,0,0,0-1.54-.149c-2.1,0-3.577,1.176-3.577,2.848,0,1.689,1.424,2.782,3.61,2.782a3.823,3.823,0,0,0,2.749-.927A2.646,2.646,0,0,0,144.585-.5c0-.066-.017-.182-.033-.331a10.015,10.015,0,0,1,2.534,2.053Zm-5.3-.911s.033.4.033.563c0,.927-.546,1.391-1.673,1.391-1.027,0-1.623-.4-1.623-1.076,0-.7.7-1.143,1.772-1.143A4.175,4.175,0,0,1,142.7-1.547Zm7.816-6.21a2.472,2.472,0,0,1,.315-.017c.132,0,.364,0,.662.017.282.017.447.017.53.017h.96a1.4,1.4,0,0,0,.215-.017,35.38,35.38,0,0,1-2.964,8.909l2.087.811a56.149,56.149,0,0,0,1.855-5.481c.431-1.507.845-3.262,1.027-4.289a22.575,22.575,0,0,0,2.716-.348c.4-.066.4-.066.53-.083l-.083-1.9a13.744,13.744,0,0,1-2.832.5c.066-.381.083-.48.166-.944a9.41,9.41,0,0,1,.315-1.59l-2.186-.2a2.248,2.248,0,0,1,.017.3,20.1,20.1,0,0,1-.315,2.534c-.381.017-.563.017-.762.017a13.175,13.175,0,0,1-2.219-.149Zm13.132.364c-1.043-.017-1.192-.017-1.639-.017a21.252,21.252,0,0,0-4.935.53l.149,1.822a17.872,17.872,0,0,1,4.372-.48,17.24,17.24,0,0,1,2.087.116Zm-6.525,3.478A4.67,4.67,0,0,0,155.9-1.05,2.393,2.393,0,0,0,157.071.987a6.724,6.724,0,0,0,3.329.662,19.271,19.271,0,0,0,3.08-.265c.381-.066.513-.083.811-.116l-.149-2.037a12.673,12.673,0,0,1-3.759.613c-1.656,0-2.484-.431-2.484-1.275a2.747,2.747,0,0,1,.861-1.822ZM169.9,1.716c-.017-.215-.017-.348-.017-.447a13.6,13.6,0,0,1,1.474-5.018l-1.325-.6a16.888,16.888,0,0,0-.861,2.186c.017-.414.033-.546.033-.911a27.65,27.65,0,0,1,.248-3.66,22.831,22.831,0,0,1,1.043-4.951l-2.186-.232a10.835,10.835,0,0,1-.248,1.54,31.792,31.792,0,0,0-.679,6.475,28.885,28.885,0,0,0,.431,4.951c.05.381.066.48.083.778ZM172.19-8.2a19.658,19.658,0,0,0,2.981.182,29.662,29.662,0,0,0,3.544-.2c.795-.1,1.043-.132,1.176-.149l-.1-2a18.261,18.261,0,0,1-4.5.447,11.94,11.94,0,0,1-3.064-.265Zm1.143,2.732a5.41,5.41,0,0,0-1.524,3.411,2.774,2.774,0,0,0,.5,1.623C173.035.54,174.36,1,176.413,1a20.421,20.421,0,0,0,3.428-.315,5.534,5.534,0,0,1,.679-.1l-.166-2.1a11.638,11.638,0,0,1-3.941.629c-1.722,0-2.633-.5-2.633-1.441a3.746,3.746,0,0,1,1.176-2.385Zm20.319-2c.745,0,1.242.017,1.788.066V-8.932a10.375,10.375,0,0,1-1.623.083H190.8c.116-.48.182-.729.2-.778l-1.805-.2a6.012,6.012,0,0,1-.166.977h-2.186a10.482,10.482,0,0,1-1.557-.083v1.524a15.086,15.086,0,0,1,1.689-.066h1.275c-.845.729-2.12,1.11-4.19,1.292a3.272,3.272,0,0,1,.629,1.06,12.222,12.222,0,0,1-1.805-.1v1.706a13.527,13.527,0,0,1,1.805-.1h9.29V.606c0,.282-.182.381-.712.381-.2,0-.613-.017-.977-.033-.017-.182-.033-.7-.033-.96V-1.58a9.479,9.479,0,0,1,.066-1.308,12.891,12.891,0,0,1-1.374.05h-4.67c-.563,0-.944-.017-1.341-.05a9.11,9.11,0,0,1,.066,1.275V.639a9.293,9.293,0,0,1-.083,1.424h1.822V1.186h4.372a6.672,6.672,0,0,1,.315,1.341c.7.05,1.424.083,1.871.083,1.938,0,2.467-.381,2.467-1.772V-3.617h.4a14.916,14.916,0,0,1,1.788.1V-5.223a13.964,13.964,0,0,1-1.788.1h-.2a4.559,4.559,0,0,1,.58-1.126c-2.418-.166-3.66-.5-4.6-1.225Zm-6.905,2.352a5.5,5.5,0,0,0,3.378-2.136,5.969,5.969,0,0,0,3.527,2.136Zm-.017,3.643h3.842V-.172H186.73Zm2.616-9.969h-4.355a14.658,14.658,0,0,1-1.822-.083,8.651,8.651,0,0,1,.066,1.225v1.06a7.1,7.1,0,0,1-.083,1.242h1.788V-9.926h10.847v1.921h1.788a9.057,9.057,0,0,1-.066-1.242v-1.06a8.358,8.358,0,0,1,.066-1.225,14.822,14.822,0,0,1-1.822.083h-4.587v-.132a4.909,4.909,0,0,1,.083-1.06h-1.987a5.168,5.168,0,0,1,.083,1.076Zm13.082-.878a3.891,3.891,0,0,1-.05.563l-.248,2.053C202-8.568,201.9-6.73,201.9-5.389c0,.331.033,1.557.05,2.037v.315a1.288,1.288,0,0,1-.017.215l1.987-.033V-3.2a7.94,7.94,0,0,1,2.087-5.349,2.465,2.465,0,0,1,1.788-.878c1.424,0,2.219,1.325,2.219,3.709,0,2.517-.878,4.09-2.8,5.067a9.667,9.667,0,0,1-3.627.944,6.334,6.334,0,0,1,.977,1.954,14.123,14.123,0,0,0,3.246-.927,6.96,6.96,0,0,0,4.272-6.806,6.935,6.935,0,0,0-1.192-4.4,3.468,3.468,0,0,0-2.832-1.49,3.953,3.953,0,0,0-3.146,1.689,6.7,6.7,0,0,0-1.043,1.971,3.635,3.635,0,0,1-.1.364h-.05c.033-.4.1-.96.215-1.656a16.245,16.245,0,0,1,.6-3.2ZM225.182-8.75a10.645,10.645,0,0,0,.464-1.507,33.592,33.592,0,0,0,4.339-.828l-1.176-1.557a6.882,6.882,0,0,1-1.623.53,35.341,35.341,0,0,1-6.26.613h-.7a6.03,6.03,0,0,1,.662,1.59c.96-.017.96-.017,2.964-.166a10.278,10.278,0,0,1-.431,1.325h-2.053a13.629,13.629,0,0,1-1.788-.083v1.739c.563-.05,1.093-.083,1.673-.083h1.325a8.6,8.6,0,0,1-3.726,2.964,4.785,4.785,0,0,1,1.159,1.441,11.079,11.079,0,0,0,3.08-2.517,10.014,10.014,0,0,1,.083,1.374V.54c0,.282-.116.381-.447.381a6.028,6.028,0,0,1-1.292-.149,5.539,5.539,0,0,1,.331,1.706c.364.033.828.05,1.374.05a2.1,2.1,0,0,0,1.308-.331c.282-.248.348-.48.348-1.242V-3.931a9.641,9.641,0,0,1,.1-1.49h-1.689a11.262,11.262,0,0,0,1.225-1.755h1.076a10.36,10.36,0,0,0,4.968,4.471,5.6,5.6,0,0,1,.861-1.722A7.686,7.686,0,0,1,228.825-5.7a5.89,5.89,0,0,1-1.474-1.474h1.788a18.385,18.385,0,0,1,1.838.083V-8.833a17.894,17.894,0,0,1-1.871.083Zm-8.86-2.434A12.666,12.666,0,0,1,219.2-8.949l1.076-1.424a16.588,16.588,0,0,0-2.848-2.1Zm-.662,4.173a14.971,14.971,0,0,1,3.047,2.12L219.7-6.4a16.42,16.42,0,0,0-3.03-1.954Zm2.285,3.229a14.1,14.1,0,0,1-2.169,5.067l1.54,1.341a23.857,23.857,0,0,0,2.07-5.382Zm2.683,5.713a15.04,15.04,0,0,0,1.788-4.8l-1.474-.464a8.971,8.971,0,0,1-.629,2.2,8.868,8.868,0,0,1-1.143,2.12Zm4.537-4.852a24.316,24.316,0,0,1,1.176,4.736L228,1.169a29.353,29.353,0,0,0-1.441-4.554Zm2.352.149a20.484,20.484,0,0,1,2.12,4.554L231.21.9a26.921,26.921,0,0,0-2.335-4.322Zm8.412-7.485a36.694,36.694,0,0,0,7.733,1.043l.282-2.037h-.464a22.7,22.7,0,0,1-6.905-.96Zm-1.457,5.531a23.154,23.154,0,0,1,6.558-1.143c1.722,0,2.6.629,2.6,1.871a3.423,3.423,0,0,1-2.02,2.915A11.559,11.559,0,0,1,236.625.175a4.73,4.73,0,0,1,.861,2.07A13.554,13.554,0,0,0,242.7.689a5.573,5.573,0,0,0,3.146-4.753,3.409,3.409,0,0,0-1.606-3.03,5.975,5.975,0,0,0-3.13-.679,28.892,28.892,0,0,0-5.2.563,11.273,11.273,0,0,1-1.921.282Z" transform="translate(15 5351.313)" fill="#fff"/>
    <path id="Path_79" data-name="Path 79" d="M6.121-5.407c-.024.668-.024.765-.073,1.2H4.081a9,9,0,0,1-1.336-.061V-2.99a9.027,9.027,0,0,1,1.312-.061H5.744A3.379,3.379,0,0,1,4.36-1.739a6.5,6.5,0,0,1-1.822.668A3.76,3.76,0,0,1,3.279.095a5.55,5.55,0,0,0,3.51-2.477A5.918,5.918,0,0,0,10.626.095a4.7,4.7,0,0,1,.631-1.287c-1.894-.34-2.927-.887-3.546-1.858H9.983a7.978,7.978,0,0,1,1.2.061V-4.265a7.548,7.548,0,0,1-1.166.061H7.36c.036-.34.049-.583.061-.935a2.358,2.358,0,0,0,.012-.267H9.3a8.755,8.755,0,0,1,1.178.061V-6.609a7.42,7.42,0,0,1-1.19.061h-4c.194-.352.194-.352.291-.546a1.72,1.72,0,0,1,.1-.219L4.615-7.629H9.983a8.046,8.046,0,0,1,1.324.073V-8.9a8.433,8.433,0,0,1-1.36.085H2.15A9.662,9.662,0,0,1,.838-8.88c.036.376.049.777.049,1.3V.568A11.358,11.358,0,0,1,.814,1.977H2.223v-.5h7.93a7.73,7.73,0,0,1,1.336.085V.2a9.226,9.226,0,0,1-1.348.073H2.223V-7.629h2.21a2.424,2.424,0,0,1-.182.474A5.7,5.7,0,0,1,2.587-5.188a3.809,3.809,0,0,1,1.02.789,8.421,8.421,0,0,0,.935-1.008Zm7.6-2.271a8.434,8.434,0,0,1-.85-.036c.024.17.061.7.061.984V.58a8.648,8.648,0,0,1-.085,1.275h1.324v-.85h1.664v.546h1.287a7.194,7.194,0,0,1-.049-1v-2.6a6.747,6.747,0,0,1,.036-.911,7.582,7.582,0,0,1-.862.036H14.184V-3.962h2.052a7.089,7.089,0,0,1,.777.024A7.984,7.984,0,0,1,16.99-4.8V-6.961c0-.267,0-.5.024-.753a7.837,7.837,0,0,1-.814.036h-.753a10.187,10.187,0,0,0,.6-1.482l-1.336-.158a5.7,5.7,0,0,1-.559,1.639Zm.461,1.154h1.591v1.409H14.184Zm0,4.773h1.652V-.16H14.184Zm5.671-5.817v1.275H18.678a7.142,7.142,0,0,1-1.02-.049,7.057,7.057,0,0,1,.049,1.008V-.549A8.035,8.035,0,0,1,17.645.775h1.324a8.221,8.221,0,0,1-.049-1.166V-5.164h.935V.75a7.323,7.323,0,0,1-.085,1.214h1.4A7.328,7.328,0,0,1,21.094.75V-5.164H22.2v4.4c0,.182-.049.231-.219.231a4.023,4.023,0,0,1-.631-.085A2.927,2.927,0,0,1,21.617.617c.291.012.4.024.583.024a1.345,1.345,0,0,0,.887-.194,1.144,1.144,0,0,0,.328-.887V-5.382a6.415,6.415,0,0,1,.036-.959,6.919,6.919,0,0,1-.972.049H21.094V-7.568h1.445a8.911,8.911,0,0,1,1.2.061V-8.831a9.006,9.006,0,0,1-1.251.073H18.532a9.022,9.022,0,0,1-1.275-.073v1.324a8.8,8.8,0,0,1,1.2-.061Zm11.367.753a2.654,2.654,0,0,1,1.227.364,3.009,3.009,0,0,1,1.494,2.7A3.4,3.4,0,0,1,32.255-.719a6.454,6.454,0,0,1-2.417.668,3.874,3.874,0,0,1,.741,1.421A7.939,7.939,0,0,0,32.485.86a4.678,4.678,0,0,0,2.951-4.53c0-2.732-1.894-4.505-4.809-4.505a5.451,5.451,0,0,0-4.178,1.7,5.217,5.217,0,0,0-1.336,3.534c0,1.955,1,3.364,2.38,3.364,1,0,1.773-.716,2.465-2.283A17.568,17.568,0,0,0,31.222-6.815ZM29.741-6.8a16,16,0,0,1-1.008,4.1c-.437,1.044-.85,1.554-1.251,1.554-.534,0-.959-.789-.959-1.785a4.066,4.066,0,0,1,1.652-3.279A3.091,3.091,0,0,1,29.741-6.8ZM40.33.082h.826a7.075,7.075,0,0,1,1.105.061V-1.108a5.989,5.989,0,0,1-1,.061H40.33v-.716h.7a10.035,10.035,0,0,1,1.069.036c-.024-.291-.036-.583-.036-1.312V-5.2c0-.644.012-.923.036-1.178a9.1,9.1,0,0,1-1.02.036h-.765v-.716h.911a8.656,8.656,0,0,1,1.117.049V-8.236a7.342,7.342,0,0,1-1.178.061h-.85V-8.3a5.031,5.031,0,0,1,.085-.984H39.067a6.464,6.464,0,0,1,.073.984v.121h-.947a7.25,7.25,0,0,1-1.178-.061V-7.01a9.54,9.54,0,0,1,1.117-.049H39.14v.716h-.6a9.8,9.8,0,0,1-1.214-.049,12.093,12.093,0,0,1,.049,1.275v2.028c0,.571-.012.972-.049,1.36.4-.024.692-.036,1.239-.036h.571v.716H38.035a6.78,6.78,0,0,1-1.117-.061V.155A6.55,6.55,0,0,1,38.1.082H39.14V.823a6.766,6.766,0,0,1-.085,1.129H40.4A7.769,7.769,0,0,1,40.33.884Zm-.036-2.9v-.789h.741v.789Zm0-1.737v-.729h.741v.729Zm-1.117-.729v.729h-.753v-.729Zm0,1.676v.789h-.753v-.789ZM43.9-4.047A27.336,27.336,0,0,1,42.625.216c-.389.036-.546.036-.862.049l.279,1.372c.194-.036.267-.049.7-.121l2.587-.437c.51-.109.814-.182,1.312-.3.17.546.17.546.316,1.105l1.19-.583a28.314,28.314,0,0,0-1.688-4.372l-1.117.437c.389.85.619,1.409.959,2.356-.753.146-1.348.243-2.332.364a32.535,32.535,0,0,0,1.275-4.129h1.591a8.2,8.2,0,0,1,1.19.061V-5.334a6.381,6.381,0,0,1-1.19.073h-3.23a6.459,6.459,0,0,1-1.19-.073v1.348a7.863,7.863,0,0,1,1.154-.061ZM42.832-7.131a7.53,7.53,0,0,1,1.178-.061h2.441c.364,0,.692.012.874.024s.182.024.194.024a.342.342,0,0,0,.1-.012V-8.467a5.806,5.806,0,0,1-1.166.073H44.01a5.869,5.869,0,0,1-1.178-.073ZM56.664-8.175a7.437,7.437,0,0,1-.862.036h-.437v-.073a5.254,5.254,0,0,1,.061-.984h-1.3a4.984,4.984,0,0,1,.073.984v.073h-.583a4.608,4.608,0,0,1-.753-.049v-.741a5.819,5.819,0,0,1-1.057.061H49.9a6.766,6.766,0,0,1-1.02-.061v1.287a4.786,4.786,0,0,1,.534-.049V-.926a3.508,3.508,0,0,1-.668.1L49.025.483A4.685,4.685,0,0,1,49.839.24c.425-.121,1-.3,1.53-.474V.677a11.927,11.927,0,0,1-.061,1.3h1.227A8.754,8.754,0,0,1,52.474.69V-4.69H56.98a16.983,16.983,0,0,0,.486,3.619A10.59,10.59,0,0,1,56.506,0V-3.124c0-.619,0-.8.024-1.081a7.506,7.506,0,0,1-.789.036H53.81a5.394,5.394,0,0,1-.765-.036c.024.4.036.546.036,1.081V.167c0,.4-.024.7-.049,1.057h1.093V.435h1.858a9.367,9.367,0,0,1-.826.583,3.591,3.591,0,0,1,.765.935,10.36,10.36,0,0,0,1.955-1.8c.425.984,1,1.567,1.506,1.567a.839.839,0,0,0,.753-.559A6.085,6.085,0,0,0,60.489-.61a4.358,4.358,0,0,1-.959-.656c-.036.959-.121,1.53-.206,1.53C59.3.265,59.25.2,59.141.01a5.356,5.356,0,0,1-.413-1,14.124,14.124,0,0,0,1.032-2c.1-.219.194-.437.267-.583l-.984-.619a8.011,8.011,0,0,1-.68,1.724c-.1-.631-.17-1.275-.231-2.222H58.8a10.017,10.017,0,0,1,1.36.061V-5.9a7.592,7.592,0,0,1-1.36.073h-.7c-.012-.364-.024-1.372-.024-1.8a9.338,9.338,0,0,1,.061-1.542H56.87a7.535,7.535,0,0,1,.036.874c.012,1.615.012,1.615.036,2.465h-.972a9.818,9.818,0,0,0,.3-1.3,3.306,3.306,0,0,1,.389.024Zm-1.4,1.032A8.59,8.59,0,0,1,55-5.832h-.51c-.061-.522-.134-.959-.206-1.312ZM52.474-5.832V-7.69c.146.012.194.012.364.024v.559c.182-.024.231-.024.413-.036.121.5.206.947.267,1.312ZM50.531-7.69h.838v1.421h-.838Zm0,2.5h.838v1.3h-.838Zm0,2.38h.838v1.4c-.328.1-.437.134-.838.231Zm3.595-.352h1.36v.777h-1.36Zm-.012,1.724h1.372v.862H54.114ZM58.3-8.224a6.38,6.38,0,0,1,.9,1.919l.959-.559A9.741,9.741,0,0,0,59.19-8.7ZM64.339-9.1a12.406,12.406,0,0,1-.364,2.113c-.267.012-.474.012-.619.012a8.432,8.432,0,0,1-1.639-.109V-5.7l.644.012c.255.012.328.012.486.012s.219,0,.765-.012A18.682,18.682,0,0,1,62.469-2.82,11.054,11.054,0,0,1,61.291-.877l1.4.777c.073-.146.073-.146.231-.437.461-.85.571-1.069.85-1.664A23.31,23.31,0,0,0,65.1-5.722c.753-.061,1.494-.146,1.931-.219A2.368,2.368,0,0,1,67.423-6l-.036-1.4a10.416,10.416,0,0,1-1.943.34c.134-.534.194-.777.255-1.069a6.08,6.08,0,0,1,.194-.814Zm7.772,3.157a19.17,19.17,0,0,0-3.425-1.627L67.958-6.39a14.863,14.863,0,0,1,3.5,1.7ZM72.062-.464a2.175,2.175,0,0,1-.182-.17,4.477,4.477,0,0,0-.425-.328,7.587,7.587,0,0,0-1.919-1.117,12.894,12.894,0,0,1-.109-1.664,4.048,4.048,0,0,1,.146-1.227l-1.409-.073a6.441,6.441,0,0,0-.1,1.227c0,.364.024.838.061,1.4A6.032,6.032,0,0,0,67-2.529c-1.542,0-2.623.862-2.623,2.089S65.42,1.6,67.023,1.6A2.8,2.8,0,0,0,69.038.92a1.941,1.941,0,0,0,.522-1.287c0-.049-.012-.134-.024-.243A7.345,7.345,0,0,1,71.394.9Zm-3.886-.668s.024.291.024.413c0,.68-.4,1.02-1.227,1.02-.753,0-1.19-.291-1.19-.789s.51-.838,1.3-.838A3.061,3.061,0,0,1,68.176-1.132Zm8.088-6.582A21.98,21.98,0,0,0,81-6.2l.5-1.4a18.216,18.216,0,0,1-4.53-1.348Zm-.972,1.069a4.956,4.956,0,0,1-.073.7C75-4.508,74.807-3.16,74.71-2.407c-.061.461-.061.51-.1.729l1.53.049a2.644,2.644,0,0,1,.546-.522,5.527,5.527,0,0,1,3.024-.887c1.287,0,2.052.486,2.052,1.3,0,1.032-1.19,1.749-2.9,1.749A9.8,9.8,0,0,1,75.6-.6,5.389,5.389,0,0,1,75.778.969a11.166,11.166,0,0,0,3.1.425A5.246,5.246,0,0,0,82.081.568a2.957,2.957,0,0,0,1.251-2.344c0-1.554-1.36-2.575-3.425-2.575A5.756,5.756,0,0,0,76.228-3.2L76.2-3.221c.036-.182.036-.182.061-.352a25.7,25.7,0,0,1,.546-2.987Z" transform="translate(15.019 5389.694)" fill="#fff"/>
  </g>
</svg>
