<svg id="Group_21" data-name="Group 21" xmlns="http://www.w3.org/2000/svg" xmlns:xlink="http://www.w3.org/1999/xlink" width="16" height="20" viewBox="0 0 16 20">
  <defs>
    <clipPath id="clip-path">
      <rect id="Rectangle_28" data-name="Rectangle 28" width="16" height="20" fill="#004a9d"/>
    </clipPath>
  </defs>
  <g id="Group_20" data-name="Group 20" clip-path="url(#clip-path)">
    <path id="Path_26" data-name="Path 26" d="M8,10a2,2,0,0,0,2-2A2,2,0,0,0,8,6,2,2,0,0,0,6,8a2,2,0,0,0,2,2m0,7.35a27.5,27.5,0,0,0,4.525-5.088A7.764,7.764,0,0,0,14,8.2a6.037,6.037,0,0,0-1.738-4.462A5.792,5.792,0,0,0,8,2,5.792,5.792,0,0,0,3.738,3.738,6.037,6.037,0,0,0,2,8.2a7.764,7.764,0,0,0,1.475,4.062A27.5,27.5,0,0,0,8,17.35M8,20a33.221,33.221,0,0,1-6.012-6.363A9.892,9.892,0,0,1,0,8.2,7.731,7.731,0,0,1,2.413,2.225,7.991,7.991,0,0,1,8,0a7.991,7.991,0,0,1,5.587,2.225A7.731,7.731,0,0,1,16,8.2a9.892,9.892,0,0,1-1.988,5.437A33.221,33.221,0,0,1,8,20" fill="#004a9d"/>
  </g>
</svg>
