<svg width="17" height="17" viewBox="0 0 17 17" fill="none" xmlns="http://www.w3.org/2000/svg">
<mask id="mask0_16_4202" style="mask-type:luminance" maskUnits="userSpaceOnUse" x="0" y="0" width="17" height="17">
<path d="M17 0H0V17H17V0Z" fill="white"/>
</mask>
<g mask="url(#mask0_16_4202)">
<path d="M8.5 17.0002V15.1112H15.111V1.88918H8.5V0.000177729H15.111C15.3594 -0.00329159 15.6058 0.0440638 15.8352 0.139334C16.0646 0.234604 16.2722 0.375777 16.445 0.554178C16.6237 0.727056 16.7651 0.934681 16.8606 1.16427C16.956 1.39386 17.0035 1.64056 17 1.88918V15.1112C16.9989 15.6118 16.7996 16.0917 16.4456 16.4457C16.0915 16.7998 15.6117 16.9991 15.111 17.0002H8.5ZM6.611 13.2222L5.311 11.8532L7.721 9.44418H0V7.55618H7.721L5.313 5.14718L6.613 3.77818L11.333 8.50018L6.611 13.2222Z" fill="#5F9CE0"/>
</g>
</svg>
