<svg width="15" height="15" viewBox="0 0 15 15" fill="none" xmlns="http://www.w3.org/2000/svg">
    <mask id="mask0_9_1869" style="mask-type:luminance" maskUnits="userSpaceOnUse" x="0" y="0"
        width="15" height="15">
        <path d="M15 0H0V15H15V0Z" fill="white" />
    </mask>
    <g mask="url(#mask0_9_1869)">
        <path
            d="M7.5 15.0002V13.3332H13.333V1.66715H7.5V0.000151602H13.333C13.5522 -0.00285787 13.7696 0.0389674 13.972 0.123059C14.1744 0.20715 14.3575 0.331731 14.51 0.489152C14.6677 0.641685 14.7926 0.824885 14.8768 1.02747C14.9611 1.23006 15.003 1.44776 15 1.66715V13.3332C14.9992 13.775 14.8233 14.1986 14.5109 14.511C14.1984 14.8235 13.7749 14.9994 13.333 15.0002H7.5ZM5.833 11.6672L4.688 10.4582L6.813 8.33315H0V6.66715H6.813L4.688 4.54215L5.833 3.33315L10 7.50015L5.833 11.6672Z"
            fill="#6F6F6F" />
    </g>
</svg>