<svg width="154" height="29" viewBox="0 0 154 29" fill="none" xmlns="http://www.w3.org/2000/svg">
<path d="M64.791 27.834H82.034L82.745 23.44H68.574L64.791 27.834Z" fill="#0A1016"/>
<path d="M62.6099 2.98199L61.8989 7.376H84.7449L85.4549 2.98199H62.6099Z" fill="#0A1016"/>
<path d="M149.946 0.895996L150.174 9.242H153.412L153.184 0.895996H149.946Z" fill="#0A1016"/>
<path d="M136.031 21.666H139.015L138.631 23.992H135.647L136.031 21.666ZM136.841 16.744H139.824L139.548 18.418H136.565L136.841 16.744ZM127.722 16.544H129.014L128.303 20.864L126.89 21.6L127.722 16.544ZM128.741 10.351H130.031L129.531 13.361H128.239L128.741 10.351ZM138.948 6.407H141.054L139.554 10.232H139.222L138.948 6.407ZM144.43 6.407H145.838L145.892 6.08L146.015 10.232H142.931L144.43 6.407ZM129.761 4.161H131.053L130.553 7.171H129.261L129.761 4.161ZM134.404 4.161H134.734L134.364 6.41H135.707L135.95 10.235H133.403L134.404 4.161ZM139.498 0L138.951 3.325H135.603L135.994 0.946H125.945L125.417 4.162H126.544L123.375 23.413L122.14 24.065L121.504 27.93L127.667 24.736L126.967 29.001H130.318L132.899 13.322H146.099L146.263 19.247L141.697 25.774L143.706 13.561H134.122L131.882 27.175H140.717L139.668 28.675H143.316L146.391 24.246L146.531 29H149.802L149.538 19.729L153.099 14.636H149.447L149.408 14.694L149.366 13.321H152.926L153.433 10.236H149.287L148.987 0.163H145.716L145.809 3.325H142.266L142.815 0H139.498Z" fill="#0A1016"/>
<path d="M120.25 2.51599H108.15L107.59 5.98599H119.69L120.25 2.51599Z" fill="#0A1016"/>
<path d="M95.0959 14.979H96.1899L95.8899 16.816H94.7969L95.0959 14.979ZM99.5729 14.979H100.667L100.367 16.816H99.2739L99.5729 14.979ZM95.8529 10.379H96.9459L96.7289 11.694H95.6359L95.8529 10.379ZM100.33 10.379H101.425L101.208 11.694H100.115L100.33 10.379ZM98.6339 0.127991L98.2049 2.73599H93.1979L92.6529 6.04899H97.6599L97.4859 7.10299H93.0759L90.9429 20.068H95.3529L95.1729 21.155H90.0989L89.5549 24.468H94.6249L93.8839 28.968H97.2669L98.0079 24.468H102.436L102.054 27.906L115.57 26.406L115.935 28.963H119.625L117.232 17.534H113.555L114.912 23.108L108.842 23.787L113.813 15.111H120.145L120.706 11.7H105.053L104.492 15.111H110.063L104.963 23.972L103.331 24.166L103.831 21.152H98.5589L98.7379 20.065H103.181L105.314 7.10499H100.871L101.045 6.05099H106.284L106.829 2.73799H101.59L102.017 0.127991H98.6339Z" fill="#0A1016"/>
<path d="M85.7711 11.827H71.4581L72.9401 2.983H68.0161L66.5341 11.827H59.5241L58.5811 16.382H65.7711L63.8521 27.833H68.7761L70.6951 16.382H84.8721L85.7711 11.827Z" fill="#003B8D"/>
<mask id="mask0_9_1847" style="mask-type:luminance" maskUnits="userSpaceOnUse" x="0" y="0" width="154" height="29">
<path d="M153.432 0H0V29H153.432V0Z" fill="white"/>
</mask>
<g mask="url(#mask0_9_1847)">
<path d="M23.117 1.366C18.556 9.009 11.557 13.401 0.639 15.596L0 20.555C4.57205 19.813 9.02209 18.4532 13.228 16.513L11.345 28.151H16.425L18.854 13.138C22.9734 10.0403 26.2943 6.00463 28.541 1.366H23.117Z" fill="#0A1016"/>
<path d="M52.728 9.13901C48.513 21.639 38.948 23.609 30.75 23.713L30.137 28.478C35.731 28.478 52.142 28.334 57.714 9.13901H52.728Z" fill="#0A1016"/>
<path d="M44.6709 2.73099H33.2029L32.5029 7.08399H43.9699L44.6709 2.73099Z" fill="#0A1016"/>
<path d="M43.582 9.79199H32.116L31.416 14.146H42.883L43.582 9.79199Z" fill="#0A1016"/>
</g>
</svg>
