<svg id="Group_29" data-name="Group 29" xmlns="http://www.w3.org/2000/svg" xmlns:xlink="http://www.w3.org/1999/xlink" width="20" height="20" viewBox="0 0 20 20">
  <defs>
    <clipPath id="clip-path">
      <rect id="Rectangle_34" data-name="Rectangle 34" width="20" height="20" fill="#004a9d"/>
    </clipPath>
  </defs>
  <g id="Group_28" data-name="Group 28" clip-path="url(#clip-path)">
    <path id="Path_33" data-name="Path 33" d="M18.444,20l-7-7a6.612,6.612,0,0,1-1.917,1.056,6.783,6.783,0,0,1-2.306.389,6.974,6.974,0,0,1-5.126-2.1A6.974,6.974,0,0,1,0,7.222,6.974,6.974,0,0,1,2.1,2.1,6.974,6.974,0,0,1,7.222,0a6.974,6.974,0,0,1,5.126,2.1,6.974,6.974,0,0,1,2.1,5.126,6.783,6.783,0,0,1-.389,2.306A6.612,6.612,0,0,1,13,11.444l7,7ZM7.222,12.222a4.823,4.823,0,0,0,3.542-1.458,4.829,4.829,0,0,0,1.458-3.542,4.824,4.824,0,0,0-1.458-3.541A4.819,4.819,0,0,0,7.222,2.222,4.819,4.819,0,0,0,3.68,3.681,4.824,4.824,0,0,0,2.222,7.222,4.829,4.829,0,0,0,3.68,10.764a4.823,4.823,0,0,0,3.542,1.458" transform="translate(0 0)" fill="#004a9d"/>
  </g>
</svg>
