<svg width="14" height="13" viewBox="0 0 14 13" fill="none" xmlns="http://www.w3.org/2000/svg">
<mask id="mask0_9_4677" style="mask-type:luminance" maskUnits="userSpaceOnUse" x="0" y="0" width="14" height="13">
<path d="M13.5 0H0.5V13H13.5V0Z" fill="white"/>
</mask>
<g mask="url(#mask0_9_4677)">
<path d="M12.2999 12.8L7.8239 8.31999C7.45649 8.61305 7.04283 8.84286 6.5999 8.99999C6.12603 9.16783 5.62661 9.25208 5.1239 9.24899C4.51368 9.26044 3.9076 9.14663 3.3431 8.91461C2.7786 8.68258 2.26768 8.33726 1.8419 7.89999C1.40639 7.47408 1.06266 6.96354 0.831862 6.39979C0.601068 5.83605 0.488096 5.23103 0.4999 4.62199C0.487821 4.01262 0.60066 3.40722 0.831462 2.84311C1.06226 2.279 1.40614 1.76814 1.8419 1.34199C2.26805 0.906232 2.77891 0.562356 3.34302 0.331554C3.90713 0.100751 4.51252 -0.0120871 5.1219 -8.24727e-06C5.73094 -0.0118126 6.33596 0.101159 6.8997 0.331954C7.46344 0.562748 7.97399 0.90648 8.3999 1.34199C8.83566 1.76814 9.17953 2.279 9.41034 2.84311C9.64114 3.40722 9.75398 4.01262 9.7419 4.62199C9.74747 5.12496 9.66559 5.62507 9.4999 6.09999C9.34277 6.54292 9.11296 6.95658 8.8199 7.32399L13.2999 11.8L12.2999 12.8ZM5.1219 7.82199C5.54347 7.82959 5.96212 7.75073 6.35202 7.59026C6.74192 7.42979 7.09481 7.19113 7.3889 6.88899C7.69084 6.59476 7.92938 6.24185 8.08984 5.85198C8.25029 5.46211 8.32926 5.04352 8.3219 4.62199C8.32925 4.20061 8.25026 3.78218 8.0898 3.39248C7.92934 3.00277 7.69082 2.65004 7.3889 2.35599C7.09497 2.05358 6.74213 1.81467 6.35221 1.65402C5.96228 1.49337 5.54355 1.4144 5.1219 1.42199C4.70025 1.4144 4.28152 1.49337 3.89159 1.65402C3.50167 1.81467 3.14883 2.05358 2.8549 2.35599C2.55299 2.65004 2.31446 3.00277 2.154 3.39248C1.99354 3.78218 1.91455 4.20061 1.9219 4.62199C1.91454 5.04352 1.99351 5.46211 2.15396 5.85198C2.31442 6.24185 2.55296 6.59476 2.8549 6.88899C3.14899 7.19113 3.50188 7.42979 3.89178 7.59026C4.28168 7.75073 4.70034 7.82959 5.1219 7.82199Z" fill="#00A390"/>
</g>
</svg>
