<svg xmlns="http://www.w3.org/2000/svg" width="18" height="18" viewBox="0 0 18 18" fill="none">
    <mask id="mask0_16_70" style="mask-type:luminance" maskUnits="userSpaceOnUse" x="0" y="0"
        width="18" height="18">
        <path d="M18 0H0V18H18V0Z" fill="white" />
    </mask>
    <g mask="url(#mask0_16_70)">
        <path
            d="M16.5998 18L10.2998 11.7C9.78154 12.1103 9.19855 12.4314 8.57479 12.65C7.90862 12.886 7.2065 13.0044 6.49979 13C5.64277 13.0171 4.79134 12.8585 3.99797 12.534C3.2046 12.2095 2.48611 11.7259 1.88679 11.113C1.27395 10.5137 0.790354 9.79521 0.465817 9.00184C0.14128 8.20847 -0.0173229 7.35704 -0.000214359 6.50003C-0.0173229 5.64302 0.14128 4.79159 0.465817 3.99822C0.790354 3.20485 1.27395 2.48635 1.88679 1.88703C2.48611 1.27419 3.2046 0.790598 3.99797 0.466061C4.79134 0.141524 5.64277 -0.0170787 6.49979 2.97817e-05C7.3568 -0.0170787 8.20823 0.141524 9.0016 0.466061C9.79497 0.790598 10.5135 1.27419 11.1128 1.88703C11.7256 2.48635 12.2092 3.20485 12.5338 3.99822C12.8583 4.79159 13.0169 5.64302 12.9998 6.50003C13.0042 7.20675 12.8858 7.90886 12.6498 8.57503C12.4311 9.1988 12.1101 9.78178 11.6998 10.3L17.9998 16.6L16.5998 18ZM6.49979 11C7.09261 11.0107 7.68134 10.8998 8.22964 10.6741C8.77795 10.4485 9.2742 10.1129 9.68779 9.68803C10.1124 9.27423 10.4478 8.77794 10.6734 8.22968C10.899 7.68143 11.0101 7.09281 10.9998 6.50003C11.0102 5.90739 10.8992 5.31889 10.6735 4.77078C10.4479 4.22267 10.1124 3.72657 9.68779 3.31303C9.27439 2.88785 8.7782 2.55196 8.22987 2.32612C7.68153 2.10029 7.09271 1.9893 6.49979 2.00003C5.90686 1.9893 5.31804 2.10029 4.7697 2.32612C4.22137 2.55196 3.72518 2.88785 3.31179 3.31303C2.88715 3.72657 2.55167 4.22267 2.32603 4.77078C2.10039 5.31889 1.98936 5.90739 1.99979 6.50003C1.98946 7.09281 2.10053 7.68143 2.32616 8.22968C2.55179 8.77794 2.88721 9.27423 3.31179 9.68803C3.72537 10.1129 4.22162 10.4485 4.76993 10.6741C5.31823 10.8998 5.90696 11.0107 6.49979 11Z"
            fill="white" />
    </g>
</svg>